<?xml version="1.0" encoding="UTF-8" standalone="no"?>
<!DOCTYPE svg PUBLIC "-//W3C//DTD SVG 1.1//EN" "http://www.w3.org/Graphics/SVG/1.1/DTD/svg11.dtd">
<svg width="100%" height="100%" viewBox="0 0 130 25" version="1.1" xmlns="http://www.w3.org/2000/svg" xmlns:xlink="http://www.w3.org/1999/xlink" xml:space="preserve" xmlns:serif="http://www.serif.com/" style="fill-rule:evenodd;clip-rule:evenodd;stroke-linejoin:round;stroke-miterlimit:2;">
    <g transform="matrix(0.275144,0,0,0.275144,-182.62041,-106.139512)">
        <g transform="matrix(1,0,0,1,267.535379,77.882969)">
            <path d="M545.56,326.569C537.796,326.569 531.277,329.636 527.635,334.621L527.539,327.623L519.583,327.623L519.583,397.217L528.497,397.217L528.497,369.035C532.236,373.444 538.371,376.032 545.56,376.032C559.556,376.032 569.238,365.871 569.238,351.301C569.238,336.73 559.556,326.569 545.56,326.569ZM544.41,367.788C535.112,367.788 528.497,360.982 528.497,351.301C528.497,341.619 535.112,334.813 544.41,334.813C553.804,334.813 560.323,341.619 560.323,351.301C560.323,360.982 553.804,367.788 544.41,367.788Z" style="fill:rgb(251,248,233);"/>
            <rect x="579.974" y="307.876" width="8.915" height="67.101" style="fill:rgb(251,248,233);"/>
            <path d="M641.324,327.623L641.228,334.621C637.489,329.636 630.971,326.569 623.206,326.569C609.307,326.569 599.529,336.73 599.529,351.301C599.529,365.871 609.307,376.032 623.206,376.032C630.971,376.032 637.489,372.965 641.228,367.98L641.324,374.978L649.184,374.978L649.184,327.623L641.324,327.623ZM624.357,367.788C615.058,367.788 608.444,360.982 608.444,351.301C608.444,341.619 615.058,334.813 624.357,334.813C633.751,334.813 640.269,341.619 640.269,351.301C640.269,360.982 633.751,367.788 624.357,367.788Z" style="fill:rgb(251,248,233);"/>
            <path d="M688.007,326.761C681.105,326.761 675.162,329.349 671.136,334.238L671.04,327.623L663.084,327.623L663.084,374.978L671.999,374.978L671.999,349.767C671.999,341.235 678.038,335.005 686.665,335.005C694.717,335.005 699.414,340.181 699.414,349.288L699.414,374.978L708.329,374.978L708.329,348.712C708.329,335.292 700.277,326.761 688.007,326.761Z" style="fill:rgb(251,248,233);"/>
            <path d="M743.318,376.032C758.368,376.032 768.241,365.392 768.241,351.301C768.241,337.209 758.368,326.569 743.318,326.569C728.172,326.569 718.299,337.209 718.299,351.301C718.299,365.392 728.172,376.032 743.318,376.032ZM743.318,367.788C733.54,367.788 727.214,360.311 727.214,351.301C727.214,342.29 733.54,334.813 743.318,334.813C753,334.813 759.326,342.29 759.326,351.301C759.326,360.311 753,367.788 743.318,367.788Z" style="fill:rgb(251,248,233);"/>
            <path d="M801.792,326.761C795.465,326.761 790.672,329.636 786.934,335.58L786.838,327.623L778.882,327.623L778.882,374.978L787.797,374.978L787.797,351.684C787.797,341.906 793.165,335.484 801.313,335.484C804.188,335.484 806.681,336.251 809.365,337.976L813.391,330.499C810.611,328.198 806.297,326.761 801.792,326.761Z" style="fill:rgb(251,248,233);"/>
            <path d="M857.486,327.623L857.39,334.621C853.652,329.636 847.133,326.569 839.369,326.569C825.469,326.569 815.692,336.73 815.692,351.301C815.692,365.871 825.469,376.032 839.369,376.032C847.133,376.032 853.652,372.965 857.39,367.98L857.486,374.978L865.347,374.978L865.347,327.623L857.486,327.623ZM840.519,367.788C831.221,367.788 824.607,360.982 824.607,351.301C824.607,341.619 831.221,334.813 840.519,334.813C849.913,334.813 856.432,341.619 856.432,351.301C856.432,360.982 849.913,367.788 840.519,367.788Z" style="fill:rgb(251,248,233);"/>
        </g>
        <g transform="matrix(0.687487,0,0,0.687487,356.022153,-56.297507)">
            <g transform="matrix(1,0,0,1,40.982177,-13.25894)">
                <circle cx="471.572" cy="721.239" r="64.976" style="fill:rgb(134,239,172);"/>
            </g>
            <g transform="matrix(0.395689,0.409456,-0.545845,0.527491,732.722447,149.020141)">
                <circle cx="471.572" cy="721.239" r="64.976" style="fill:rgb(34,197,94);"/>
            </g>
        </g>
    </g>
</svg>
